<?xml version="1.0" encoding="UTF-8" standalone="no"?>
<!-- Created with Inkscape (http://www.inkscape.org/) -->

<svg
   xmlns:dc="http://purl.org/dc/elements/1.1/"
   xmlns:cc="http://creativecommons.org/ns#"
   xmlns:rdf="http://www.w3.org/1999/02/22-rdf-syntax-ns#"
   xmlns:svg="http://www.w3.org/2000/svg"
   xmlns="http://www.w3.org/2000/svg"
   xmlns:sodipodi="http://sodipodi.sourceforge.net/DTD/sodipodi-0.dtd"
   xmlns:inkscape="http://www.inkscape.org/namespaces/inkscape"
   width="422.00766mm"
   height="244.90092mm"
   viewBox="0 0 1495.3027 867.75918"
   id="svg2"
   version="1.1"
   inkscape:version="0.91 r13725"
   sodipodi:docname="Rivas Vaciamadrid.svg">
  <defs
     id="defs4" />
  <sodipodi:namedview
     id="base"
     pagecolor="#ffffff"
     bordercolor="#666666"
     borderopacity="1.0"
     inkscape:pageopacity="0.0"
     inkscape:pageshadow="2"
     inkscape:zoom="0.175"
     inkscape:cx="632.90432"
     inkscape:cy="555.06853"
     inkscape:document-units="px"
     inkscape:current-layer="layer1"
     showgrid="false"
     fit-margin-left="100"
     fit-margin-right="100"
     fit-margin-top="0"
     fit-margin-bottom="0"
     inkscape:window-width="1301"
     inkscape:window-height="744"
     inkscape:window-x="65"
     inkscape:window-y="24"
     inkscape:window-maximized="1" />
  <metadata
     id="metadata7">
    <rdf:RDF>
      <cc:Work
         rdf:about="">
        <dc:format>image/svg+xml</dc:format>
        <dc:type
           rdf:resource="http://purl.org/dc/dcmitype/StillImage" />
        <dc:title></dc:title>
      </cc:Work>
    </rdf:RDF>
  </metadata>
  <g
     inkscape:label="Capa 1"
     inkscape:groupmode="layer"
     id="layer1"
     transform="translate(1525.2947,63.389445)">
    <path
       style="fill:#000000"
       d="m -1142.7139,138.79877 c -0.3619,-0.58562 -6.7114,-19.49734 -14.1099,-42.026042 -7.3985,-22.5287 -13.7192,-41.65805 -14.046,-42.50966 -0.5186,-1.35143 0.8434,-1.51228 10.7072,-1.26451 l 11.3014,0.28387 6.9727,23.26258 c 3.835,12.79442 7.1624,23.07286 7.3943,22.84098 0.2319,-0.23188 3.4558,-10.70004 7.1642,-23.26258 l 6.7427,-22.84098 11.1817,-0.28275 c 6.1499,-0.15551 11.1364,0.0695 11.0812,0.5 -0.055,0.43051 -6.4678,19.90775 -14.25,43.28275 l -14.1496,42.500002 -7.6659,0.29055 c -4.6551,0.17644 -7.9244,-0.12764 -8.324,-0.77421 z m 44.4899,0.12845 c 0,-0.47037 6.9223,-19.93287 15.3828,-43.250002 l 15.3827,-42.39479 8.3815,-0.28549 8.3815,-0.2855 15.3674,42.2855 c 8.452,23.257022 15.5871,42.863232 15.8557,43.569362 0.3836,1.00831 -1.9403,1.22295 -10.8268,1 l -11.3151,-0.28387 -1.9974,-6.25 -1.9974,-6.25 -13.2259,0 -13.2259,0 -2.1631,6.5 -2.163,6.5 -10.9185,0 c -6.0052,0 -10.9185,-0.38485 -10.9185,-0.85521 z m 46.0258,-32.89479 c -0.4786,-1.5125 -2.1035,-6.571542 -3.6108,-11.242322 l -2.7406,-8.49232 -3.3372,9.95402 c -1.8355,5.474712 -3.3372,10.533752 -3.3372,11.242322 0,0.92745 1.9461,1.2883 6.948,1.2883 l 6.948,0 z m 59.8565,32.42544 c -9.696,-3.615 -16.9881,-10.91588 -19.625,-19.64859 -2.4324,-8.05517 -2.3764,-37.179532 0.087,-45.353752 1.9861,-6.59009 7.552,-13.3692 14.09797,-17.17086 8.72226,-5.06559 23.19498,-5.27661 33.09808,-0.4826 7.5158,3.63833 13.99927,12.47838 15.9375,21.73036 l 0.68085,3.25 -10.86022,0 -10.86021,0 -1.09228,-2.89375 c -2.404,-6.36895 -11.98815,-8.67015 -16.89823,-4.05737 -1.34806,1.26643 -2.89782,3.91102 -3.44391,5.87686 -1.30473,4.69675 -1.27895,28.544332 0.036,33.278772 1.37901,4.96522 5.14485,7.79549 10.37233,7.79549 4.93065,0 7.85726,-1.82246 9.57115,-5.96017 l 1.25913,-3.03983 10.95814,0 10.95813,0 -0.70267,3.25 c -0.91734,4.24293 -4.70279,11.70112 -7.81813,15.40349 -1.35997,1.61624 -4.8724,4.25136 -7.80539,5.85583 -4.65369,2.54576 -6.54238,2.95527 -14.83272,3.21607 -6.20899,0.19533 -10.75326,-0.1684 -13.11772,-1.04995 z m 55.11772,-42.175442 0,-43.5 10.5,0 10.5,0 0,43.5 0,43.500002 -10.5,0 -10.5,0 z m 32.78175,33.178732 c 2.04504,-5.6767 9.11825,-25.26011 15.71825,-43.518692 l 12,-33.19742 8.47733,0.26869 8.47732,0.26869 15.27268,41.98184 c 8.39997,23.090022 15.27267,42.552522 15.27267,43.250002 0,0.94599 -2.74563,1.26816 -10.80746,1.26816 l -10.80745,0 -1.99922,-6.25 -1.99922,-6.25 -13.38665,0 -13.38665,0 -1.99922,6.25 -1.99922,6.25 -11.27571,0 -11.2757,0 z m 43.21825,-21.96703 c 0,-0.70857 -1.50165,-5.76736 -3.33699,-11.241772 l -3.33699,-9.95346 -3.30986,9.99176 c -1.82041,5.495482 -3.51691,10.554272 -3.76999,11.241772 -0.34084,0.92591 1.38251,1.25 6.64684,1.25 5.13162,0 7.10699,-0.35808 7.10699,-1.2883 z m 41,-11.211702 0,-43.5 10.50348,0 10.50348,0 9.23397,18.5 c 5.07869,10.175 9.55653,18.5 9.95077,18.5 0.39423,0 4.89988,-8.32343 10.01255,-18.4965 l 9.29575,-18.4965 10.25,-0.0035 10.25,-0.0035 0,43.5 0,43.500002 -10.47929,0 -10.4793,0 -0.2707,-20.25 -0.27071,-20.250002 -5.80655,10.250002 -5.80655,10.25 -6.69345,-0.0187 -6.69345,-0.0187 -6.22332,-10.73132 -6.22332,-10.731322 -0.0267,20.750002 -0.0267,20.75 -10.5,0 -10.5,0 0,-43.500002 z m 89,42.898232 c 0,-0.48628 26.97396,-75.201242 30.74063,-85.148232 0.32601,-0.86092 3.04456,-1.25 8.73385,-1.25 l 8.2605,0 15.63251,43.01689 c 8.59788,23.659302 15.63251,43.249032 15.63251,43.532762 0,0.28372 -5.03865,0.38861 -11.197,0.2331 l -11.19699,-0.28275 -1.83878,-6.25 -1.83878,-6.25 -13.27168,0 -13.27168,0 -1.99739,6.25 -1.99738,6.25 -11.19516,0.28275 c -6.15734,0.15551 -11.19516,-0.0175 -11.19516,-0.38452 z m 46.56771,-32.08239 c -0.35545,-0.92628 -1.83382,-5.65128 -3.28525,-10.500002 -1.45144,-4.84871 -2.91307,-8.81584 -3.24807,-8.81584 -0.55765,0 -7.03439,18.691932 -7.03439,20.301332 0,0.38427 3.19814,0.69867 7.10699,0.69867 6.25187,0 7.02923,-0.20264 6.46072,-1.68416 z m 40.43229,-10.788432 0,-43.69928 21.25,0.33593 c 20.96533,0.33144 21.32688,0.37369 26.98885,3.15403 6.45707,3.17078 11.82103,9.01982 14.46107,15.76881 1.42506,3.643 1.73274,7.90317 1.76319,24.4131 0.0359,19.454832 -0.0335,20.150092 -2.54612,25.506092 -3.28592,7.00446 -7.9441,11.65182 -14.9109,14.8763 -5.22668,2.41908 -6.55906,2.56859 -26.25609,2.94635 l -20.75,0.39795 z m 37.65738,22.454492 c 4.73013,-2.95402 5.46027,-5.95221 5.46027,-22.421682 0,-17.58687 -0.90593,-20.73816 -6.65195,-23.139 -1.8708,-0.78167 -5.89092,-1.42122 -8.93358,-1.42122 l -5.53212,0 0,24.63437 0,24.634362 6.77386,-0.48466 c 3.72562,-0.26657 7.72321,-1.07754 8.88352,-1.80217 z m 41.34262,-22.566432 0,-43.58453 21.75,0.34567 c 21.32504,0.33891 21.84945,0.39792 26.84002,3.02031 12.08828,6.35199 17.73033,19.30955 13.99808,32.14804 -1.59054,5.47125 -6.53895,11.965842 -10.92449,14.337952 -1.68284,0.91023 -1.0766,2.45619 7.25,18.48823 4.99751,9.62221 9.08639,17.79507 9.08639,18.1619 0,0.36683 -5.42937,0.66696 -12.06527,0.66696 l -12.06527,0 -7.92955,-16.56374 -7.92955,-16.56375 -3.25518,0.31375 -3.25518,0.31374 -0.27477,16.25 -0.27477,16.25 -10.47523,0 -10.47523,0 z m 39.43672,-9.35602 c 3.53724,-3.32307 3.53027,-8.80174 -0.0154,-12.13514 -2.2667,-2.13096 -3.50697,-2.42431 -10.25,-2.42431 l -7.67128,0 -0.29697,7.40642 c -0.42114,10.50339 -0.52442,10.37891 8.24405,9.93612 6.16486,-0.31131 7.86178,-0.78407 9.98964,-2.78309 z m 39.56328,9.44055 0,-43.5 10.5,0 10.5,0 0,43.5 0,43.500002 -10.5,0 -10.5,0 z m 38,-0.0874 0,-43.58738 20.75,0.33738 c 19.89743,0.32353 20.97598,0.44395 26.25,2.93078 6.24009,2.94236 11.17844,7.55983 14.33825,13.40661 1.98168,3.66681 2.18863,5.73038 2.48441,24.77321 0.36682,23.616742 -0.35261,27.481092 -6.44025,34.593132 -7.79475,9.10643 -15.18112,11.13367 -40.56607,11.13367 l -16.81634,0 z m 35.28212,23.225412 c 6.87477,-2.90978 7.21788,-3.98351 7.21788,-22.587672 0,-12.40631 -0.36118,-17.4173 -1.39476,-19.35076 -2.06205,-3.85734 -7.0911,-5.85258 -13.86116,-5.49932 l -5.74408,0.29974 -0.26936,22.97836 c -0.14815,12.638102 -0.0498,23.550602 0.21862,24.250002 0.65895,1.71722 9.70177,1.65816 13.83286,-0.0903 z m -523.28212,-139.223952 0,-43.585933 21.25,0.355218 c 19.71385,0.329539 21.62786,0.524663 26.47705,2.699205 10.62923,4.76652 17.04885,15.62408 16.01022,27.07825 -0.65537,7.22755 -3.50378,12.79762 -9.0422,17.68203 l -4.37362,3.85717 8.83927,16.9467204 c 4.86161,9.3206996 8.83928,17.3081996 8.83928,17.7499996 0,0.4418 -5.41306,0.80328 -12.02903,0.80328 l -12.02903,0 -7.62652,-15.9999996 -7.62652,-16 -3.84445,0 -3.84445,0 0,16 0,15.9999996 -10.5,0 -10.5,0 z m 37.94124,-7.88368 c 3.92008,-2.02714 5.44124,-6.6792 3.61401,-11.0524 -1.70339,-4.07678 -6.37586,-5.77806 -14.55525,-5.29966 l -5.5,0.32168 -0.29697,7.40642 c -0.16333,4.07352 -0.065,8.01102 0.21862,8.75 0.72358,1.88561 12.80777,1.79342 16.51959,-0.12604 z m 41.05876,7.96962 0,-43.5 10.5,0 10.5,0 0,43.5 0,43.5 -10.5,0 -10.5,0 z m 44.08329,1.24986 c -7.74581,-23.23757 -14.08329,-42.812571 -14.08329,-43.499996 0,-0.9227 2.82824,-1.249864 10.80472,-1.249864 l 10.80471,0 6.82387,22.75 c 3.75312,12.5125 7.1035,23.06268 7.44528,23.44485 0.34178,0.38217 3.73047,-9.85533 7.53041,-22.75 l 6.90899,-23.44485 10.84101,0 c 8.00551,0 10.84101,0.326906 10.84101,1.249864 0,0.687425 -6.33748,20.262426 -14.08329,43.499996 l -14.08328,42.25014 -7.83343,0 -7.83343,0 z m 58.36326,40.53401 c 0.37759,-0.98113 7.5077,-20.5874196 15.84469,-43.56953 l 15.15816,-41.785651 8.37289,0.285655 8.37289,0.285656 15.40241,42.37301 c 8.47133,23.3051604 15.40241,42.76766 15.40241,43.25 0,0.48235 -4.93368,0.87699 -10.96373,0.87699 l -10.96373,0 -1.91864,-6.25 -1.91865,-6.25 -13.24399,0 -13.24399,0 -2.12587,6 -2.12588,6 -11.36775,0.28387 c -10.56047,0.26372 -11.31899,0.1572 -10.68122,-1.5 z m 46.53327,-30.0338696 c -0.0111,-0.4125 -1.51828,-5.4546604 -3.3493,-11.2047904 l -3.32914,-10.4548 -3.29753,9.9548 c -1.81365,5.47513 -3.5046,10.5172904 -3.75768,11.2047904 -0.34084,0.92591 1.38251,1.25 6.64684,1.25 3.90885,0 7.09791,-0.3375 7.08681,-0.75 z m 48.94953,30.4320596 c -5.07237,-1.42251 -12.86185,-5.69088 -14.9274,-8.1797 -1.16784,-1.40717 -0.46262,-2.49566 5.52834,-8.5328796 6.35344,-6.40250999 6.99669,-6.80254 8.60213,-5.34963999 2.92907,2.65076999 9.04175,4.29026999 16.16724,4.33626999 10.41393,0.0672 14.72628,-3.02024 13.12571,-9.39745 -0.89171,-3.55284 -3.06156,-4.50166 -14.08021,-6.1569404 -10.83486,-1.62766 -14.47709,-2.94517 -19.23746,-6.95881 -4.7923,-4.04056 -7.06046,-9.62847 -7.08016,-17.44291 -0.0245,-9.73015 1.42723,-13.58521 7.34428,-19.50226 7.23193,-7.231924 12.3556,-8.819003 26.95392,-8.349088 9.72886,0.313169 11.8975,0.714343 16.76557,3.101428 3.07522,1.50796 6.4258,3.66384 7.44573,4.79084 1.82968,2.02178 1.76742,2.1361 -4.6687,8.57222 l -6.5231,6.5231 -3.66471,-2.16223 c -5.04342,-2.97569 -14.28423,-3.74742 -18.53723,-1.54811 -5.33508,2.75888 -6.12157,7.85746 -1.76926,11.46956 0.81578,0.67704 5.90285,1.88806 11.3046,2.69117 17.11212,2.54415 23.87077,7.48518 26.39399,19.29579 2.92081,13.6716904 -3.00988,25.58541 -15.57263,31.28264 -4.15099,1.88249 -7.03762,2.31262 -17,2.53316 -7.5223,0.16652 -13.7055,-0.21265 -16.57065,-1.01616 z"
       id="path4147"
       inkscape:connector-curvature="0"
       sodipodi:nodetypes="sssscssscscscsssscccssscccccccsssscssscssssssscccsssssscccssssscccccccccsscccssscccccccccssscssssccccssscccccccccccccccccccccssscssscccccccssssssssccsssssssccsssscccssccssssssscccccccccccsscsscccccccccccccsssssscccssscscccccsssscsssccccccccccssscscscccccccccssscssscssscccssscccssscccccccsssscssssassssssssssssscsssssssa" />
    <path
       style="fill:#f00000;fill-opacity:1;fill-rule:evenodd;stroke:none;stroke-width:1px;stroke-linecap:round;stroke-linejoin:miter;stroke-opacity:1"
       d="m -932.11712,172.78271 157.67858,631.58705 157.67857,-631.58733 z"
       id="path4149"
       inkscape:connector-curvature="0"
       sodipodi:nodetypes="cccc" />
    <path
       style="fill:#ffffff;fill-opacity:1;stroke:none;stroke-width:1.12881005;stroke-linecap:round;stroke-miterlimit:4;stroke-dasharray:none"
       d="m -774.4377,197.32006 -17.69922,60.92968 35.50196,-0.0273 -17.80274,-60.90234 z m 17.80274,60.90234 25.12304,25.08203 30.47657,-55.65234 -55.59961,30.57031 z m 25.12304,25.08203 0.0313,35.50196 60.90039,-17.80079 -60.93165,-17.70117 z m -60.625,-25.05469 -55.65234,-30.47461 30.56836,55.59961 25.08398,-25.125 z m -25.08398,25.125 -60.90039,17.80274 60.92969,17.69922 -0.0293,-35.50196 z m 0.0293,35.50196 -30.47656,55.65234 55.60156,-30.56836 -25.125,-25.08398 z m 25.125,25.08398 17.80078,60.90039 17.70117,-60.92968 -35.50195,0.0293 z m 35.50195,-0.0293 55.65039,30.4746 -30.56836,-55.59765 -25.08203,25.12305 z"
       id="path4153"
       inkscape:connector-curvature="0" />
  </g>
</svg>
